<?xml version="1.0" encoding="UTF-8"?>
<svg version="1.1" viewBox="0 0 1600 1800" xmlns="http://www.w3.org/2000/svg">
<defs>
<clipPath id="a">
<path d="m775.1 84.245c-1.9568 0.0504-4.4916 1.5118-8.3437 5.5938-4.4312 4.6954-11.279 13.033-16.156 23.75-5.7423 12.618-10 15.874-10 22.812 0 3.2862-8.1041 18.895-8.9063 21.812-3.1934 11.616-3.4337 22.318-7.9374 31.469-1.7834 3.6233 6.0867 10.972 8.8124 11.5-3.8982 0.2125-6.9285 1.8887-9.0312 5.0938-0.1324 0 7.6965 7.416 8.2054 8.8124 0.6902 1.894-5.4199-0.76056-3.8437 0.95094-10.434-4.5639-23.103-4.8049-35.579-6.4591-15.009-1.9901-30.218-4.7471-47.27-2.5945-15.649 1.9755-23.265 3.1661-38.264 7.7413-11.147 3.4 5.1109-0.72858-5.392 3.9954 10.043-5.879-11.451 2.5536-11.451 2.5536l4.9063-12.969c-3.6274-0.3321-8.7362 0.144-7.4375-2.875 0.4591 0 7.2055-5.4742 6.375-9-0.717-3.0442-5.0574 1.7079-6.0625-1.75 1.1107-1.635 5.0693-8.0615 4.9375-15.094l0.7812-8.2188-1.125-10.156c-1.1509-5.2868-1.9523-10.12-2.8437-14.75-4.2643-22.149-10.39-31.362-12.594-43.938-1.112-6.3458-9.4429-9.6696-13.188-13.781-3.3998-3.733-15.482-4.0488-22.75 4.3125-3.7681 4.3346-4.5271 13.122-9.1874 18.406-10.285 11.662-10.074 39.664-11.688 56.344-2.6315 27.198 3.6983 33.484 8.2188 43.031 1.7123 3.6164-2.7091 10.697-2.9062 10.5l13.062 3.75c0.4909 5.9862-5.7193 8.2517-9.0312 12.125 0.6033-0.5027 11.66 0.9993 11.906 4.3438 0.2832 3.8417-0.5092 5.2812 1.5 5.2812 0.3702 0 0.8517-0.1001 1.4688-0.2812-15.833 3.0897-24.157 5.1706-36.268 16.057-4.1913 3.7673 9.3733 2.2729 4.2352 5.5198-8.822 5.5748-16.83 13.067-23.949 21.701-3.1897 3.869 10.942-5.6041 8.116-1.3459-8.4978 12.805-24.92 32.839-34.316 50.151-4.5162 8.3212 0.6276 13.793-1.112 20.664-1.6275 6.4279-10.26 14.347-10.862 19.44-9.3811 7.3246-18.314 15.339-26.021 24.694-2.7734 3.3668-1.9683 8.7726-5.7717 11.762-13.665 10.742-34.243 24.476-31.499 42.204 0.5505 3.5573-5.4724 7.9104-7.7544 11.557-5.1285 8.196-10.17 15.718-12.734 23.16-3.7204 10.799-5.0618 12.282-8.5425 22.751-0.8961 2.6951 3.9063 1.2502 2.9968 4.2084-2.3572 7.6666-9.0687 16.364-12.077 25.868-3.5734 11.29-3.3761 28.037-3.9973 39.122-0.2542 4.5361-4.275 25.33-4.2751 29.4-2e-4 10.101-1.2624 19.931 0.5419 29.184 1.6015 8.2125 6.1494 15.895 8.1743 24.047 4.2521 17.119 10.447 33.374 18.377 48.653 4.0531 7.809 18.202 7.5058 23.134 14.79 51.705 76.365 140.55 130.94 253.95 130.94 107.23 0 184.59-46.54 238.07-121.13 2.9056-4.0519 10.572-6.0369 17.415-10.598 6.8917-4.5941 12.958-11.766 15.381-16.15 4.1025-7.4222 5.0577-16.88 7.9021-25.287 1.8982-5.6099 5.8263-10.157 7.7216-15.505 6.8893-19.437 15.259-39.82 16.925-60.874 0.5004-6.3235-1.3881-12.707-1.3881-19.144 0-17.802-3.9144-33.723-6.7521-49.62-4.3923-24.606-9.6947-48.154-20.94-70.796-6.5944-13.278-16.244-24.931-24.475-39.011-5.99-10.246-12.403-20.91-19.182-32.207-7.3015-12.168-14.469-12.741-24.004-25.129-6.1055-11.638-11.853-8.8015-13.737-15.638-1.7153-6.2245-4.8135-14.128-5.6399-19.421-1.0676-6.8387-4.063-10.041-6.0611-15.314-2.4339-6.4231-8.4554-10.925-11.069-17.276-2.674-6.4982-3.4823-13.981-7.2642-21.366-7.414-14.476-20.163-30.605-38.132-52.412-2.7281-3.3109-0.3718 2.0536-4.1194-0.0584 5.99 1.6726-7.4189-3.1554-6.2812-3.5313 1.8291-0.6044 21.61-1.9754 21.969-2-2.6266-0.4511-22.848-17.32-13.938-19.031 3.9502-0.7584 20.344-0.8947 20.344-15.094 6.0572-13.547 8.308-27.564 9-41.781l-0.7813-15.875c-1.0759-35.392-8.9985-43.326-15.594-49.781-1.5635-1.5303-2.9495-2.8629-4.9063-2.8125z" fill="#ececec" opacity=".26871" stroke="#000" stroke-width="2.2"/>
</clipPath>
</defs>
<g transform="translate(0 747.64)">
<g transform="translate(125.26 -444.47)">
<path d="m696.51 982.64c-5.043 4.3759-12.117 39.28-17.31 41.639-5.8774 2.67-12.737 3.3489-18.539 5.8389-15.906 6.826-32.739 3.9576-47.513-17.854-10.866-16.043-18.985-35.51-23.523-55.259-2.6482-11.524-4.9625-23.145-3.5587-34.237 0.58232-4.6023 2.0761-9.662 3.4467-14.067 1.736-5.5788 2.5704-12.181 5.8201-17.212 24.829-43.504 70.564-29.999 85.147-17.494 4.3218 3.7059-7.8623 24.736-8.7257 25.138 6.4518 29.603 11.681 23.443 21.743 65.386 1.728 7.2032 6.5782 10.581 3.0121 18.12z" fill="#72715f" stroke="#000" stroke-width="1.9075"/>
<path d="m683.1 1011.5c-4.7128 4.3496-1.5109 8.5144-6.3633 10.859-5.4925 2.654-8.3316 4.7574-13.754 7.2325-14.864 6.785-36.309 2.5052-50.116-19.175-10.155-15.947-17.742-35.297-21.982-54.927-2.4748-11.455-4.6375-23.006-3.3257-34.031 0.54419-4.5747 1.9401-9.604 3.221-13.982 1.6223-5.5454 2.402-12.108 5.439-17.109 10.265-19.13 33.632-22.646 33.632-22.646s-23.619 49.328-16.02 56.259c4.0387 3.6837-6.4706 27.764-7.2775 28.163 5.7245 5.9398 14.329 26.68 23.009 28.383 4.7308 0.92773 7.5044 17.598 10.145 23.804 17.178 40.376 49.875-18.693 49.875-18.693s-3.1509 18.371-6.4835 25.864z" fill="#48463b"/>
<path d="m775.1 84.245c-1.9568 0.0504-4.4916 1.5118-8.3437 5.5938-4.4312 4.6954-11.279 13.033-16.156 23.75-5.7423 12.618-10 15.874-10 22.812 0 3.2862-8.1041 18.895-8.9063 21.812-3.1934 11.616-3.4337 22.318-7.9374 31.469-1.7834 3.6233 6.0867 10.972 8.8124 11.5-3.8982 0.2125-6.9285 1.8887-9.0312 5.0938-0.1324 0 7.6965 7.416 8.2054 8.8124 0.6902 1.894-5.4199-0.76056-3.8437 0.95094-10.434-4.5639-23.103-4.8049-35.579-6.4591-15.009-1.9901-30.218-4.7471-47.27-2.5945-15.649 1.9755-23.265 3.1661-38.264 7.7413-11.147 3.4 5.1109-0.72858-5.392 3.9954 10.043-5.879-11.451 2.5536-11.451 2.5536l4.9063-12.969c-3.6274-0.3321-8.7362 0.144-7.4375-2.875 0.4591 0 7.2055-5.4742 6.375-9-0.717-3.0442-5.0574 1.7079-6.0625-1.75 1.1107-1.635 5.0693-8.0615 4.9375-15.094l0.7812-8.2188-1.125-10.156c-1.1509-5.2868-1.9523-10.12-2.8437-14.75-4.2643-22.149-10.39-31.362-12.594-43.938-1.112-6.3458-9.4429-9.6696-13.188-13.781-3.3998-3.733-15.482-4.0488-22.75 4.3125-3.7681 4.3346-4.5271 13.122-9.1874 18.406-10.285 11.662-10.074 39.664-11.688 56.344-2.6315 27.198 3.6983 33.484 8.2188 43.031 1.7123 3.6164-2.7091 10.697-2.9062 10.5l13.062 3.75c0.4909 5.9862-5.7193 8.2517-9.0312 12.125 0.6033-0.5027 11.66 0.9993 11.906 4.3438 0.2832 3.8417-0.5092 5.2812 1.5 5.2812 0.3702 0 0.8517-0.1001 1.4688-0.2812-15.833 3.0897-24.157 5.1706-36.268 16.057-4.1913 3.7673 9.3733 2.2729 4.2352 5.5198-8.822 5.5748-16.83 13.067-23.949 21.701-3.1897 3.869 10.942-5.6041 8.116-1.3459-8.4978 12.805-24.92 32.839-34.316 50.151-4.5162 8.3212 0.6276 13.793-1.112 20.664-1.6275 6.4279-10.26 14.347-10.862 19.44-9.3811 7.3246-18.314 15.339-26.021 24.694-2.7734 3.3668-1.9683 8.7726-5.7717 11.762-13.665 10.742-34.243 24.476-31.499 42.204 0.5505 3.5573-5.4724 7.9104-7.7544 11.557-5.1285 8.196-10.17 15.718-12.734 23.16-3.7204 10.799-5.0618 12.282-8.5425 22.751-0.8961 2.6951 3.9063 1.2502 2.9968 4.2084-2.3572 7.6666-9.0687 16.364-12.077 25.868-3.5734 11.29-3.3761 28.037-3.9973 39.122-0.2542 4.5361-4.275 25.33-4.2751 29.4-2e-4 10.101-1.2624 19.931 0.5419 29.184 1.6015 8.2125 6.1494 15.895 8.1743 24.047 4.2521 17.119 10.447 33.374 18.377 48.653 4.0531 7.809 18.202 7.5058 23.134 14.79 51.705 76.365 140.55 130.94 253.95 130.94 107.23 0 184.59-46.54 238.07-121.13 2.9056-4.0519 10.572-6.0369 17.415-10.598 6.8917-4.5941 12.958-11.766 15.381-16.15 4.1025-7.4222 5.0577-16.88 7.9021-25.287 1.8982-5.6099 5.8263-10.157 7.7216-15.505 6.8893-19.437 15.259-39.82 16.925-60.874 0.5004-6.3235-1.3881-12.707-1.3881-19.144 0-17.802-3.9144-33.723-6.7521-49.62-4.3923-24.606-9.6947-48.154-20.94-70.796-6.5944-13.278-16.244-24.931-24.475-39.011-5.99-10.246-12.403-20.91-19.182-32.207-7.3015-12.168-14.469-12.741-24.004-25.129-6.1055-11.638-11.853-8.8015-13.737-15.638-1.7153-6.2245-4.8135-14.128-5.6399-19.421-1.0676-6.8387-4.063-10.041-6.0611-15.314-2.4339-6.4231-8.4554-10.925-11.069-17.276-2.674-6.4982-3.4823-13.981-7.2642-21.366-7.414-14.476-20.163-30.605-38.132-52.412-2.7281-3.3109-0.3718 2.0536-4.1194-0.0584 5.99 1.6726-7.4189-3.1554-6.2812-3.5313 1.8291-0.6044 21.61-1.9754 21.969-2-2.6266-0.4511-22.848-17.32-13.938-19.031 3.9502-0.7584 20.344-0.8947 20.344-15.094 6.0572-13.547 8.308-27.564 9-41.781l-0.7813-15.875c-1.0759-35.392-8.9985-43.326-15.594-49.781-1.5635-1.5303-2.9495-2.8629-4.9063-2.8125z" fill="#72715f" stroke="#000" stroke-width="2.2"/>
<path d="m447.02 209.93c-1.9747 8.925 21.726 5.8319 21.985 5.9872-0.14668 0.80672-33.145 3.9596-33.882 3.9682-594.61 6.9001-6.3198 12.324-6.6024 13.268-1.0742 3.5868-17.6-2.6094-17.877-1.7589-0.51079 1.5685 7.1645 11.928 6.2912 14.837-0.54975 1.8311 126.54-3.6285 126.54-3.6285-0.59077-0.4203-123.07 2.2001-126.71 0.60705-5.9502-2.5985-5.7107 15.715-3.0455 18.829 2.1015 2.4549 67.452 8.4106 65.467 10.812-54.525 65.973-46.399 78.201-32.9 95.558 3.2628 4.1954-37.189 20.311-36.283 25.299 1.5614 8.6004-16.917 16.302-11.82 23.514 2.1847 3.0914-40.861 41.467-37.952 44.08 1.9287 1.7322-1.3796 52.876 0.0934 54.45-68.32 28.391 10.42 246.4 31.169 261.17 8.0377 5.7235 5.3396-179.48 14.228-185.04 4.3316-2.707 25.263-69.526 29.918-73.316 8.2628-6.7274 25.701-33.228 33.337-40.33 7.5408-7.0135 31.127-28.666 30.053-38.08 0.24373-16.626 35.038-40.094 35.038-40.094-13.333-4.879-36.322-0.10159-26.759-27.877l12.419-36.962c-5.8403 8.0866-4.1078-4.438-3.562-26.387 0.16718-6.7241 11.018-25.899 10.553-33.529-0.48836-8.029 29.683-30.195 29.683-30.195s7.3319-4.973 5.6187-12.132c-0.95767-4.0019-20.087 6.3616-17.265-0.74777 2.5768-6.4928 8.2971-10.82 9.0912-14.859 1.635-8.3167 0.16005-28.798 0.16005-28.798l-13.997-4.4529 14.077-27.198c-1.3452 1.6814-33.673 25.974-4.3815-22.896 0 0-2.3482-4.3068-2.9259-5.3082-6.1266-16.826 6.831-26.377 6.831-26.377s-5.2355 0.50368-5.6533-2.8087c-0.92726-7.3515 9.5338-15.767 7.643-14.454-2.6833 1.8635-42.451 0.26667-44.193 1.6493-11.048 8.7705-3.6305 11.141-5.9371 14.511-9.492 9.796-20.86 22.571-23.97 33.074-1.6068 5.4266-24.996 12.57-27.681 23.614-0.411 1.6905 18.325 18.17 16.889 26.305" clip-path="url(#a)" fill="#48463a"/>
<path d="m889.98 651.72c-0.4855 16.276-3.4445 47.449-5.0357 70.882-1.0358 15.254 0.36 22.701-2.9549 36.144-0.7748 3.142-5.2285-2.0168-6.1909 0.93058-3.0312 9.2842-3.2846 25.71-7.0411 32.175-1.8352 3.1583-1.9814 7.9789-4.006 10.895-43.415 62.533-131.29 68.707-221.96 68.707-93.395 0-196.8 5.3074-238.61-63.735-19.132-31.589-6.7913-122.83-6.7913-161.36 0-67.854 26.585-132.18 79.75-172.94 12.026-9.221 26.312-17.311 41.984-24.182 1.8948-0.83069-1.1902-2.3578 0.7436-3.1527 39.262-16.139 91.242-24.151 133.03-24.151 10.563 0 11.327 3.9911 21.582 1.5897 8.0509-1.8853 15.264-5.7925 20.76-6.2001 6.328 4.7417 26.249 2.2593 47.005 15.013 5.2098-0.87696 25.509 2.3029 31.139 5.0445 18.748 9.1299 38.408 33.848 49.712 38.244 24.258 10.122 23.291 21.643 29.464 30.884 3.8043 1.6397 4.9095 2.691 6.7376 4.4742 4.7039 4.5881 11.895 9.2628 14.965 17.386 1.593 4.2148 5.8421 8.4067 6.6168 12.823 4.4305 25.26 11.244 54.88 10.888 75.327-0.2399 13.783-1.3358 20.312-1.7798 35.198z" fill="#e1db9f" stroke="#000" stroke-width="2.2"/>
<path d="m398.59 637.64c-0.10718 3.1866-0.39965 6.3405-0.25687 9.2704 0.34041 6.9852-0.60305 13.796-0.79359 20.645-0.50336 18.094-1.6218 34.984-3.3458 48.432-0.45623 3.5587 0.2528 7.5553 0.16336 10.973-0.3923 14.991 1.1261 28.061 0.56892 39.689-0.2544 5.3087 1.9115 14.516 2.8171 19.504 1.5614 8.6004 1.3879 12.751 6.4851 19.964 2.1847 3.0914 4.4854 8.2249 7.3947 10.838 1.9287 1.7322 3.967 5.162 5.44 6.7362 23.325 22.352 39.353 27.118 46.51 31.874 12.303 8.1755 3.9779 2.704 1.7688-11.816 0.24373-16.626-30.264-73.069-27.843-84.117 3.4632-15.808 34.584-10.459 30.062-34.361-0.22747-1.2022-13.744-11.881-13.744-11.881s-6.6175 1.9271-7.7042-0.96022c-4.8623-12.919 3.647-35.139 3.647-35.139s-19.275 12.348-20.988 5.1893c-1.8323-7.6567-3.2305-16.074-1.5669-24.536 1.635-8.3167 12.303-39.513 12.303-39.513l-11.14-2.3101 11.22-29.341c-1.3452 1.6814-33.673 25.974-4.3815-22.896 0 0-15.48 11.856-16.058 10.854-6.1266-16.826 27.287-44.559 27.287-44.559s-5.2355-3.5369-5.6533-6.8493c-0.92726-7.3515 3.4811-16.791 2.0872-14.959-11.385 14.964-13.094 19.703-15.801 23.599-6.5103 9.369-8.2101 20.694-13.638 31.487-2.5428 5.0561-4.8178 11.32-7.5028 22.364-0.411 1.6905-2.3888 8.5275-3.8258 16.662-1.7873 10.117-3.0488 22.035-3.052 26.129" fill="#a9a359"/>
<path d="m576.46 866.22c-6.7082 4.3759-12.318 8.5658-19.225 10.924-7.8181 2.67-16.943 3.3489-24.661 5.839-21.158 6.8259-43.55 3.9576-63.201-17.854-14.455-16.043-25.254-35.51-31.29-55.259-3.5226-11.524-6.6011-23.145-4.7338-34.237 0.7746-4.6023 2.7616-9.662 4.5848-14.067 2.3092-5.5788 3.4191-12.181 7.7419-17.212 33.028-43.504 78.662-14.284 98.061-1.7794 5.7488 3.7059 4.7438 9.0215 3.5953 9.4234 35.497 26.032 41.474 51.389 39.374 95.386-0.3532 7.4029-5.5018 11.296-10.245 18.834z" fill="#72715f" stroke="#000" stroke-width="2.2"/>
<path d="m883.24 739.86c1.2063 6.8488 0.76551 17.108-1.989 20.318-1.1128 1.2969-5.1891-3.0651-5.5871-0.8713-1.8329 10.103-3.57 20.211-6.2286 29.028-1.648 5.4655-3.0696 9.7191-5.0746 13.275-2.7223 4.8278-5.9929 8.3694-7.46 11.912-1.7109 4.1311 8.5111-20.696 6.7863-32.915-3.655-25.893-27.708-47.118-26.608-53.96 0.6473-4.0254 6.7099-1.9923 9.1935-3.4887 4.2442-2.5573 6.3742-7.5416 11.878-14.012 4.7461-5.5799 6.8524-17.957 10.672-22.598 1.811-2.2004 0.6578 13.914 2.251 11.937 10.364-12.862 17.292-34.815 17.256-31.124-0.26186 1.0642 0.0174 2.4112-0.0863 3.4933-0.40345 4.2125-0.82591 8.9154-1.1391 12.509-0.54249 6.2232-1.1072 11.135-1.1049 12.929-0.0142 3.4444-0.9864 9.6231-0.97345 17.008" fill="#a9a359"/>
<path d="m719.12 866.22c6.7083 4.3759 12.318 8.5658 19.225 10.924 7.8181 2.67 16.943 3.3489 24.661 5.839 21.158 6.8259 43.55 3.9576 63.201-17.854 14.455-16.043 25.254-35.51 31.29-55.259 3.5225-11.524 6.6009-23.145 4.7338-34.237-0.7747-4.6023-2.7617-9.662-4.5849-14.067-2.3092-5.5788-3.419-12.181-7.7419-17.212-33.028-43.504-78.662-14.284-98.061-1.7794-5.7487 3.7059-4.7437 9.0215-3.5953 9.4234-35.497 26.032-41.474 51.389-39.374 95.386 0.3532 7.4029 5.5017 11.296 10.245 18.834z" fill="#72715f" stroke="#000" stroke-width="2.2"/>
<path d="m720.53 866.93c6.5337 4.3759 14.319 7.8515 21.046 10.21 7.6146 2.67 16.502 3.3489 24.019 5.839 20.607 6.8259 41.658 2.4423 60.799-19.369 14.078-16.043 25.101-34.752 30.981-54.501 3.4308-11.524 6.6816-22.387 4.8631-33.479-0.75453-4.6023-2.6898-9.662-4.4656-14.067-2.2491-5.5788-5.0978-12.686-9.3082-17.717-3.4365-4.6476 2.5079 34.238-0.4034 50.955-3.2989 18.943-13.743 25.813-18.907 33.338-5.7664 8.4034-16.737 4.9302-22.313-6.3186-4.421-8.9188-3.3838-26.439-8.2846-20.549-11.522 13.849-31.961 4.2328-39.457 8.2058-28.315 15.009-0.63312-30.754 8.6436-35.12 0 0-2.0378-4.3164-5.6566-3.5071-4.774 1.0677-10.538-13.106-9.2085-23.37 0.72241-5.5764 11.225-10.678 13.267-12.767 0 0-11.997 6.4588-16.355 9.904-3.1626 2.4998-1.6659 8.1072-1.3466 8.0434 0 0-3.4899 4.0265-3.124 2.1089-34.573 26.032-36.991 49.327-34.946 93.325 0.34401 7.4029 5.5371 11.296 10.157 18.834z" fill="#464438"/>
<path d="m729.05 838.15c0 6.7366 1.4413 19.839 5.4316 25.088 10.491 13.801 22.723 12.769 39.568 12.769 11.78 0 23.091-0.43883 31.112-6.6712 8.9017-6.9165 8.2428-15.693 5.3526-26.305-1.3408-4.9231-1.4814-5.6213-3.7201-8.3449-4.668-5.679-5.2186-5.6502-8.347-8.1031-4.7544-3.7276-8.1718-4.2244-11.592-5.539-1.2737-0.4896-5.5296-2.5738-7.3726-2.7766-2.635-0.2899-5.7637-1.1054-10.361-1.1054-24.816 0-40.02 0.0317-40.072 20.909l0.048-0.42608z" fill="#72715f" stroke="#000" stroke-width="2.2"/>
<path d="m812.06 810.37-8.5268 3.3366-14.723 22.413 0.75 0.6563c7.4997-3.5612 14.999-7.8094 22.499-15.37l0.7198-10.38z" color="#000000" fill="#989993" stroke="#000" stroke-width="1px" style="block-progression:tb;text-indent:0;text-transform:none"/>
<path d="m784.69 790.77-17.744 24.841 0.338 12.034 0.9062 0.4375c7.4022-0.25906 19.118-31.23 17.406-36.875z" color="#000000" fill="#989993" stroke="#000" stroke-width="1px" style="block-progression:tb;text-indent:0;text-transform:none"/>
<path d="m749.06 790.09c-5.1517 8.4035-11.591 24.915-13.625 38.125l0.9376 0.3438c10.183-3.3213 16.24-22.141 13.625-38.156z" color="#000000" fill="#989993" stroke="#000" stroke-width="1px" style="block-progression:tb;text-indent:0;text-transform:none"/>
<path d="m589.05 300.12c0 8.0291-6.5065 15.289-13.826 19.247-3.9968 2.1611-8.5906 2.9832-11.68 3.2285-4.2511 0.3375-7.1984 2.4857-10.724 1.5257-10.813-2.9441-18.579-13.895-17.307-24.002 2.136-16.971 14.587-21.77 28.032-22.476 21.128-1.1098 26.88 9.4326 25.506 22.429l-0.2525-0.9632z" fill="#fff" stroke="#000" stroke-opacity=".99582" stroke-width="2.2"/>
<path d="m576.42 298.1c0.2727 7.2339-5.0564 10.209-10.859 11.617-7.0269 1.7043-11.453-3.406-11.364-10.354 0.082-6.4152 5.3669-9.8489 11.364-9.8489 5.9885 0 10.342 3.4184 10.354 9.8246l1.2626 0.024z" stroke="#000" stroke-opacity=".99582" stroke-width="2.2"/>
<path d="m780.98 302.26c0 8.6593-2.6777 12.812-7.0357 17.088-3.1175 3.0581-6.4784 7.535-13.167 7.535-6.0116 0-13.364-0.1763-17.998-3.0734-7.7293-4.8327-11.044-14.535-11.044-23.822 0-6.1943 2.5136-10.314 6.2716-14.852 2.951-3.5633 6.5725-8.0625 11-9.4579 3.4548-1.0888 9.9053-2.4627 13.538-0.5656 7.2892 3.8064 10.947 6.7547 13.537 11.277 1.2686 2.2154 3.0485 3.465 3.383 7.986l0.5052 3.0864z" fill="#fff" stroke="#000" stroke-opacity=".99582" stroke-width="2.2"/>
<path d="m754.21 309.08c-6.6947 0-12.122-5.1445-12.122-11.49 0-3.2852 3.105-6.0791 5.5672-8.0101 2.2942-1.7991 3.8307-2.8491 7.0598-2.8491 2.7107 0 4.1254 1.769 5.6096 3.2282 2.1741 2.1373 3.7741 4.6225 3.8605 8.2458 0.08 3.8517-2.3068 6.0311-4.8255 8.1427-1.4767 1.2381-2.6753 2.733-5.1497 2.733z" stroke="#000" stroke-opacity=".99582" stroke-width="2.2"/>
<path d="m786.68 358.66c0 1.2322-2.427 3.331-18.807 12.015-9.8983 5.2476-22.392 16.465-45.024 23.181-12.018 3.5662-26.875 11.287-44.406 11.088-8.5123-0.096-77.284-7.5551-86.763-9.4986-21.528-4.414-42.831-13.563-55.935-23.046-12.075-8.7384-16.758-18.084-17.994-16.954-0.5382 0.4919 3.7913-2.3917 12.48-3.7038 15.845-2.393 38.261 1.1492 75.34-4.2679 13.234-1.9335 32.562-3.8141 47.18-3.8141 15.532 0 28.137-0.3751 41.824 1.0599 19.264 2.0197 38.57 6.224 52.858 7.8828 23.938 2.779 39.855 2.2779 39.96 3.5441" fill="#fff" stroke="#000" stroke-opacity=".99582" stroke-width="2.2"/>
<path d="m552.52 382.15c2.6164-6.9526 0.018-17.264 2.5354-26.383 0.4861-1.7612 2.4611-2.8138 3.1789-4.6888" fill="none" stroke="#000" stroke-width="1px"/>
<path d="m600.29 347.85c-3.8105 2.5547-5.0376 6.2166-6.5828 9.7422-0.5741 12.801-0.1054 29.252-1.8772 37.861" fill="none" stroke="#000" stroke-width="1px"/>
<path d="m646.86 402.59c2.2526-22.453-1.6435-39.931 1.25-59.464l-0.5357-0.3571" fill="none" stroke="#000" stroke-width="1px"/>
<path d="m696.15 402.95c0.6922-9.7637 2.466-19.959 1.192-29.648-1.3658-10.388-2.6486-19.463-3.3348-28.923" fill="none" stroke="#000" stroke-width="1px"/>
<path d="m738.83 387.77c-0.5351-7.1222 0.6422-16.646-3.3267-23.339-3.6188-5.1488-3.7914-8.5409-3.6376-14.161" fill="none" stroke="#000" stroke-width="1px"/>
<path d="m765.79 371.34c-0.066-2.1527-0.9271-4.616-1.2228-6.6372-0.5951-4.0684-1.0772-7.436-3.4201-10.506" fill="none" stroke="#000" stroke-width="1px"/>
<path d="m804.21 349.24c-0.9584 0.86678-1.6701 3.6951-0.3881 3.8571 3.8812 0.49044 7.9826 0.59575 7.6764 0.79986l14.473 0.31941s20.455 1.3996 30.65 2.4522c5.5447 0.57246 11.467 1.1824 16.59 2.1002 11.566 2.072 23.156 4.1025 34.405 5.7212l0.2812-0.9687c-14.614-6.1719-30.792-10.154-47.781-13l-0.062-0.0313s-0.041 2.3e-4 -0.062 0c-18.597-0.20835-55.781-1.25-55.781-1.25s-1e-3 -2.9e-4 0 0z" color="#000000" fill="#757366" stroke="#000" stroke-opacity=".99582" stroke-width="1px" style="block-progression:tb;text-indent:0;text-transform:none"/>
<path d="m908.8 330.31c-3.4099 0.23769-6.3947-0.67328-10.493-0.82263-9.2244-0.33616-20.46-0.44428-29.106-0.69019-18.518-0.52668-37.067 0.26964-52.193 1.6464-8.7841 0.79952-15.704 1.0847-22.645 3.2726-0.5904 0.1861 0.1071 1.5942 0.7143 1.7143 15.959 3.157 22.877-2.3456 56.256-0.61739 4.9967 0.2587 10.194 0.15548 15.882-0.15552 11.532-0.63052 22.578-1.4008 40.545-2.4547l1.0404-1.8929z" color="#000000" fill="#757366" stroke="#000" stroke-opacity=".99582" stroke-width="1px" style="block-progression:tb;text-indent:0;text-transform:none"/>
<path d="m884.21 289.81c-31.604 3.5967-63.208 11.495-94.813 30.531l0.3126 0.9376c-0.7675 4.4214 16.889-4.0671 38.57-13.144 22.474-9.4092 49.643-13.175 56.243-17.387z" color="#000000" fill="#757366" stroke="#000" stroke-opacity=".99582" stroke-width="1px" style="block-progression:tb;text-indent:0;text-transform:none"/>
<path d="m640.94 303.21-0.031 1c0.6871 0.3628-0.4155 1.6068 0.2638 1.9456 2.9394 1.4658 7.3637 1.0287 10.367 1.8749 4.8353 1.3626 9.6465 5.4132 13.908 5.4615 3.0199 0.0342 6.0776-2.9617 9.1252-4.2714 2.8288-1.2157 7.2772-0.53355 9.9341-3.2963l0.3617-1.9707-1.2235-1.3508c-1.4292-0.5603-2.2397-2.0345-3.681-2.4608-10.094-2.9855-22.004-3.2878-32.687-0.59255-1.2813 0.32328-2.4626 1.0716-2.8577 1.3084-0.3676 0.22027 0.1016-0.13444-2.2299 1.7271z" color="#000000" style="block-progression:tb;text-indent:0;text-transform:none"/>
<path d="m629.23 301.36c6.5565-6.6585 14.303-8.8536 22.762-8.3797" fill="none" stroke="#000" stroke-width="1px"/>
<path d="m662 290.84c12.062-0.8653 22.68 0.7192 29.294 9.0914" fill="none" stroke="#000" stroke-width="1px"/>
<path d="m563.33 492.19c-48.202-4.664-55.135 9.3327-75.163 24.32-2.8993 0.96447-5.9274 3.6042-8.3777-1.2676-0.2055-0.54936-0.2555-1.1209 0.1252-1.754 28.646-40.632 58.782-63.529 85.536-26.567 1.8852 2.9881 1.577 6.3627-2.1199 5.2686z" color="#000000" fill="#71705f" stroke="#000" stroke-opacity=".99582" stroke-width="1px" style="block-progression:tb;text-indent:0;text-transform:none"/>
<path d="m686.56 482.82c-12.952-1.2533-18.918-7.0911-26.359-8.2771-18.193-2.8999-20.081 1.658-42.743 9.1115-2.8993 0.96447-5.9274 3.6042-8.3777-1.2676-0.2055-0.54936-0.2555-1.1209 0.1252-1.754 8.682-12.314 17.232-18.249 23.748-22.605 6.7064-4.4839 11.364-7.1769 19.289-4.8689 9.7815 2.8486 25.381 8.395 35.681 22.625 1.8852 2.9881 2.3346 8.1304-1.3623 7.0364z" color="#000000" fill="#71705f" stroke="#000" stroke-opacity=".99582" stroke-width="1px" style="block-progression:tb;text-indent:0;text-transform:none"/>
<path d="m779.81 481.83c-6.6403-2.8554-10.172-2.0294-32.8 4.5964-2.8998 0.96463-8.9575 1.1105-5.967-4.3033-0.2055-0.54936 2.9588-3.9781 3.3395-4.6112 11.564-11.231 12.623-11.062 18.033-14.569 7.524-4.8773 10.868-3.2785 16.699 0.75613 8.0703 5.5837 16.807 11.722 28.041 24.474 1.3186 1.2886 1.0005 6.0112-1.5169 5.2653-6.537-1.9369-19.858-9.6622-25.83-11.608z" color="#000000" fill="#71705f" stroke="#000" stroke-opacity=".99582" stroke-width="1px" style="block-progression:tb;text-indent:0;text-transform:none"/>
<path d="m697.96 528.95c-13.494 4.8284-15.417 8.0068-33.936 10.026-2.8998 0.96463-8.8312 0.35291-5.8407-5.0609-0.2055-0.54936 2.9588-3.9781 3.3395-4.6112 12.084-10.883 14.039-10.989 19.17-13.307 14.228-6.4277 16.827-12.483 36.271-1e-3 9.1334 5.863 9.8207 5.4169 20.591 14.373 2.9607 3.7518-9.4656 2.8459-14.649 1.351-9.4397-2.7226-11.752-3.567-24.946-2.7692z" color="#000000" fill="#71705f" stroke="#000" stroke-opacity=".99582" stroke-width="1px" style="block-progression:tb;text-indent:0;text-transform:none"/>
<path d="m621.9 541.94c-12.952-1.2533-9.2989-0.52063-16.716-1.8486-23.229-4.1589-22.452 1.0653-42.743 9.1115-2.8993 0.96447-4.856 3.9613-7.3063-0.91043-0.2055-0.54936-0.2555-1.1209 0.1252-1.754 8.682-12.314 16.874-15.391 23.39-19.748 6.7064-4.4839 11.721-10.034 19.646-7.726 9.7815 2.8486 19.666 3.0378 29.966 17.268 1.8852 2.9881-2.6654 6.7019-6.3623 5.6078z" color="#000000" fill="#71705f" stroke="#000" stroke-opacity=".99582" stroke-width="1px" style="block-progression:tb;text-indent:0;text-transform:none"/>
<path d="m520.47 556.76c-1.6619 4.2316-15.924 2.5414-20.645 2.08-14.548-1.4218-10.966 4.4906-17.883 6.1703-1.021 0.24796-2.0014-2.3781-3.0816-1.7842-3.3662 1.851-7.0561 9.3921-12.85 11.69-2.8993 0.96447-5.9274 4.6756-8.3777-0.19614-0.2055-0.54936 2.9588-3.6209 3.3395-4.254 8.1178-12.22 9.7492-16.154 14.462-24.748 1.075-1.9603 5.9141-4.5137 7.4591-6.0598 0.9283-0.92899-1.4723-1.9401-0.4682-2.3858 3.9701-1.762 11.52 0.0896 12.655 0.71957 11.62 6.45 9.1534 2.5582 17.466 8.3392 1.0556 3.1387 10.205 4.6206 7.9234 10.429z" color="#000000" fill="#71705f" stroke="#000" stroke-opacity=".99582" stroke-width="1px" style="block-progression:tb;text-indent:0;text-transform:none"/>
<path d="m812.31 547.01c-6.6403-2.8554-7.8506-5.7794-30.478 0.84643-2.8998 0.96463-8.9575 1.1105-5.967-4.3033-0.2055-0.54936 5.2802-4.1566 5.6609-4.7898 12.289-6.5174 24.668-11.618 31.069-9.0338 21.081 9.3178 16.009 11.255 24.74 21.123 0.091 1.0202 6.1352 13.934 0.8046 13.837-6.8168-0.12402-19.858-15.734-25.83-17.679z" color="#000000" fill="#71705f" stroke="#000" stroke-opacity=".99582" stroke-width="1px" style="block-progression:tb;text-indent:0;text-transform:none"/>
<path d="m898.75 725.81c-5.7517 5.5322 1.8785 20.821-2.2531 30.422l3.0203-1.9578c3.6732-6.8899 5.2576-13.586 3.0413-28.552z" color="#000000" fill="#939796" stroke="#000" stroke-opacity=".99582" stroke-width="1px" style="block-progression:tb;text-indent:0;text-transform:none"/>
<path d="m892.71 731.74-2.5152 0.0313c-6.9468 6.2281-3.6899 13.056-1.4648 20.06 1.2152 3.825 1.1202 7.953 1.2072 11.484 1.0909 0.86277 2.1819-1.9424 3.2728-5.0508 1.2262-10.104 2.2375-16.42-0.5-26.525z" color="#000000" fill="#929695" stroke="#000" stroke-opacity=".99582" stroke-width="1px" style="block-progression:tb;text-indent:0;text-transform:none"/>
<path d="m381.96 721.71c-10.359 5.1805-10.088 25.821-4.2813 30.687l0.8425-0.25381c-1.5891-12.359 8.767-31.847 4.3125-30.687z" color="#000000" fill="#979796" stroke="#000" stroke-opacity=".99582" stroke-width="1px" style="block-progression:tb;text-indent:0;text-transform:none"/>
<path d="m389.41 726.26-1.6313-0.66381c-3.4687 7e-3 -3.9217 4.6751-3.7232 10.35-0.357 9.2693 3.9093 13.453 6.6294 19.338l1.6314 0.66391c-1.7487-10.269 1.3583-27.784-2.9063-29.688z" color="#000000" fill="#979796" stroke="#000" stroke-opacity=".99582" stroke-width="1px" style="block-progression:tb;text-indent:0;text-transform:none"/>
<path d="m418.5 548.35c-2.5 3.7424-7.1428 6.7319-9.6428 8.5715-1.4807-22.938 15.762-39.247 26.071-82.857" fill="none" stroke="#000" stroke-width="1px"/>
<path d="m881.72 544.42c5.4921-30.799-16.341-46.171-11.071-80.357" fill="none" stroke="#000" stroke-width="1px"/>
<path d="m633.23 871.33s-9.5546-0.73836-18.342-0.68415c-12.23 0.0754-25.456 2e-3 -28.806-0.052-3.4207-0.0547-15.346 1.2296-15.856-0.10207-0.80235-2.096 4.6597-4.8403 8.796-7.1661 4.6968-2.6409 7.8439-11.885 7.8439-11.885s1.6068-31.507 2.2898-25.316c5.6087-1.9145 11.226 5.94 16.64 4.8692 5.6236-1.1123 13.171 0.51789 18.12-1.152 11.309-3.816 0.95297-10.223 4.6792-10.332 1.7272-0.0505 16.004-1.2769 20.095-0.0396 5.5622 1.6822 1.0838 6.1001 2.1991 7.344 3.308 3.6892 6.8177-2.2966 14.205 1.8952 2.3759 1.3481 10.503-6.4912 14.211-4.61 6.2362 3.1634-3.3205 6.1894-0.0125 7.9961 2.5011 1.366 4.6708-8.1722 6.9117-6.9782 6.3043 3.3589 16.46 0.42456 19.673 3.4103 4.217 3.9186 1.5469 13.147 1.5469 13.147s1.2209 9.3275 4.0473 14.237c4.2291 7.3454 8.2432 11.898 7.5945 11.959-4.2134 0.3937-20.698 1.9327-24.286 2.2991-6.2145 0.63461-15.074-0.42717-16.836-0.0884" fill="#a9a359"/>
<path d="m569.07 864.31c-6.2689 4.3496-11.511 8.5144-17.966 10.859-7.3061 2.654-15.833 3.3288-23.046 5.804-19.772 6.785-40.698 3.9338-59.062-17.747-13.508-15.947-23.6-35.297-29.241-54.927-3.2919-11.455-6.1688-23.006-4.4238-34.031 0.72388-4.5747 2.5808-9.604 4.2846-13.982 2.158-5.5454 3.1952-12.108 7.2349-17.109 13.654-19.13 44.737-22.646 44.737-22.646s-31.418 49.328-21.31 56.259c5.3723 3.6837-8.6073 27.764-9.6805 28.163 7.6147 5.9398 19.06 26.68 30.607 28.383 6.2929 0.92773 9.9823 17.598 13.494 23.804 22.85 40.376 73.945-11.55 73.945-11.55s-5.1415 11.228-9.5745 18.721z" fill="#48463b"/>
<path d="m576.37 837.65c0 6.7366-1.277 19.629-6.8295 23.185-13.269 8.4978-21.325 14.672-38.17 14.672-11.78 0-23.848 8.4-31.869 2.1676-8.9017-6.9165-9.796-27.225-8.7619-38.174 0.448-4.7445 1.9865-8.5255 4.2252-11.249 4.668-5.679 7.8702-6.7866 10.999-9.2395 4.7544-3.7276 8.6769-7.2549 12.097-8.5695 1.2737-0.4896 5.5296-1.5636 7.3726-1.7664 2.635-0.2899 3.2383-2.6206 7.8355-2.6206 24.816 0 43.05 10.638 43.102 31.515l-0.5532 0.079z" fill="#727061" stroke="#000" stroke-width="2.2"/>
<path d="m542.61 778.09c-6.8078 14.772-9.7719 34.528-1.7813 39.656l1 0.0312c4.9871 0.75793 7.2058-35.333 1.7813-39.625z" color="#000000" fill="#989993" stroke="#000" stroke-width="1px" style="block-progression:tb;text-indent:0;text-transform:none"/>
<path d="m503.58 780.06-0.9375 0.4063c1.9622 36.164 10.545 40.358 18.219 42.5l0.9062-0.4063c-5.6736-14.617-6.8428-34.45-18.188-42.5z" color="#000000" fill="#989993" stroke="#000" stroke-width="1px" style="block-progression:tb;text-indent:0;text-transform:none"/>
<path d="m484.76 802.2-0.9375 0.4063c2.5315 13.317 5.2259 26.349 13.031 30.437l0.9063-0.4062c-3.3308-10.591-4.0965-22.323-13-30.438z" color="#000000" fill="#989993" stroke="#000" stroke-width="1px" style="block-progression:tb;text-indent:0;text-transform:none"/>
<path d="m376.49 301.65-0.1563 0.9687c24.758 2.6619 48.836 4.0687 73.024 10.39 18.191 4.7543 37.4 8.1874 58.288 11.328l0.1876-0.9687c-2.463-1.0489 2.1292-1.5433-0.3648-2.4955-38.585-14.732-87.857-18.669-130.98-19.223z" color="#000000" fill="#72715f" stroke="#000" stroke-opacity=".99582" stroke-width="1px" style="block-progression:tb;text-indent:0;text-transform:none"/>
<path d="m354.24 329.93-0.094 1c39.64 3.6471 69.36 5.3504 88.965 8.1879 42.314 6.1243 44.897 11.065 50.441 6.6871l-0.6637-2.2627c-40.64-13.613-92.067-13.612-139.41-14.875z" color="#000000" fill="#72715f" stroke="#000" stroke-opacity=".99582" stroke-width="1px" style="block-progression:tb;text-indent:0;text-transform:none"/>
<path d="m468.77 365.03c-93.053 6.1667-106.17 12.143-108.59 15.656l0.1562 1c34.809-8.3663 112.74-11.342 108.59-15.656z" color="#000000" fill="#72715f" stroke="#000" stroke-opacity=".99582" stroke-width="1px" style="block-progression:tb;text-indent:0;text-transform:none"/>
</g>
</g>
</svg>
